<svg width="15" height="14" viewBox="0 0 15 14" fill="none" xmlns="http://www.w3.org/2000/svg">
<g clip-path="url(#clip0_153_90)">
<path d="M7.51504 0.21875C3.68609 0.21875 0.71875 3.01711 0.71875 6.79684C0.71875 8.77379 1.53113 10.4822 2.85348 11.6624C3.0818 11.8677 3.03477 11.9867 3.07359 13.2546C3.07665 13.3434 3.10139 13.4301 3.14566 13.5072C3.18992 13.5842 3.25237 13.6493 3.32755 13.6967C3.40274 13.7441 3.48837 13.7723 3.57698 13.779C3.66559 13.7857 3.7545 13.7706 3.83594 13.735C5.2827 13.0979 5.30129 13.0476 5.54656 13.1143C9.73809 14.268 14.2812 11.5855 14.2812 6.79684C14.2812 3.01711 11.3443 0.21875 7.51504 0.21875ZM11.5958 5.2809L9.59973 8.44102C9.52435 8.55985 9.42524 8.66183 9.30861 8.74056C9.19198 8.8193 9.06035 8.87311 8.92195 8.8986C8.78356 8.92409 8.6414 8.92072 8.50437 8.8887C8.36734 8.85669 8.23839 8.79671 8.12563 8.71254L6.5375 7.52391C6.4665 7.47066 6.38015 7.44187 6.29141 7.44187C6.20266 7.44187 6.11631 7.47066 6.04531 7.52391L3.90238 9.14922C3.61637 9.36605 3.24176 9.02344 3.43453 8.72074L5.43062 5.56063C5.50597 5.44176 5.60507 5.33975 5.7217 5.26099C5.83833 5.18223 5.96997 5.12841 6.10837 5.10292C6.24678 5.07742 6.38896 5.0808 6.52599 5.11284C6.66303 5.14488 6.79197 5.20489 6.90473 5.2891L8.4923 6.47746C8.5633 6.53071 8.64965 6.55949 8.7384 6.55949C8.82714 6.55949 8.9135 6.53071 8.98449 6.47746L11.1285 4.85379C11.414 4.63559 11.7886 4.97793 11.5958 5.2809Z" fill="#241C61"/>
</g>
<defs>
<clipPath id="clip0_153_90">
<rect width="14" height="14" fill="white" transform="translate(0.5)"/>
</clipPath>
</defs>
</svg>
