<svg width="20" height="12" viewBox="0 0 20 12" fill="none" xmlns="http://www.w3.org/2000/svg">
<path d="M12.0643 5.1405C12.1216 5.44337 12.1625 5.74625 12.1625 6.13912C12.1625 9.5689 9.86237 12 6.3999 12C3.08478 12 0.399902 9.31516 0.399902 6C0.399902 2.68484 3.08478 0 6.3999 0C8.02065 0 9.37125 0.589344 10.419 1.57162L8.79006 3.13506C8.34803 2.70941 7.57043 2.21009 6.3999 2.21009C4.35353 2.21009 2.68365 3.9045 2.68365 6C2.68365 8.0955 4.35353 9.7899 6.3999 9.7899C8.77368 9.7899 9.66593 8.07912 9.80506 7.20325H6.3999V5.14047H12.0643V5.1405ZM17.8582 5.34166V3.6H16.1082V5.34166H14.3666V7.09169H16.1082V8.83334H17.8582V7.09169H19.5999V5.34166H17.8582Z" fill="white"/>
</svg>
