<svg width="32" height="32" viewBox="0 0 32 32" fill="none" xmlns="http://www.w3.org/2000/svg">
<circle cx="16" cy="16" r="16" fill="#241C61"/>
<path d="M8.50146 16.0014C8.50234 19.691 11.1853 22.8324 14.8292 23.4107V18.1689H12.9265V16.0014H14.8315V14.3514C14.7463 13.5696 15.0134 12.7904 15.5602 12.2251C16.107 11.6599 16.877 11.3672 17.6612 11.4264C18.2241 11.4355 18.7856 11.4856 19.3412 11.5764V13.4207H18.3932C18.0668 13.3779 17.7387 13.4857 17.5013 13.7137C17.2639 13.9416 17.1428 14.2651 17.1722 14.5929V16.0014H19.2505L18.9182 18.1697H17.1722V23.4107C21.1131 22.7879 23.8765 19.1887 23.4606 15.2207C23.0447 11.2527 19.5949 8.30486 15.6106 8.51279C11.6262 8.72073 8.5021 12.0116 8.50146 16.0014Z" fill="white"/>
</svg>
