<svg width="32" height="32" viewBox="0 0 32 32" fill="none" xmlns="http://www.w3.org/2000/svg">
<circle cx="16" cy="16" r="16" fill="#241C61"/>
<path d="M16.75 21.75H13.75V12.75H16.75V14.25C17.3895 13.4364 18.3592 12.9514 19.3938 12.9278C21.2542 12.9381 22.7554 14.452 22.75 16.3125V21.75H19.75V16.6875C19.63 15.8495 18.9113 15.2277 18.0648 15.2295C17.6945 15.2412 17.3449 15.4033 17.0968 15.6785C16.8487 15.9536 16.7235 16.318 16.75 16.6875V21.75ZM12.25 21.75H9.25V12.75H12.25V21.75ZM10.75 11.25C9.92157 11.25 9.25 10.5784 9.25 9.75C9.25 8.92157 9.92157 8.25 10.75 8.25C11.5784 8.25 12.25 8.92157 12.25 9.75C12.25 10.1478 12.092 10.5294 11.8107 10.8107C11.5294 11.092 11.1478 11.25 10.75 11.25Z" fill="white"/>
</svg>
