<svg width="32" height="32" viewBox="0 0 32 32" fill="none" xmlns="http://www.w3.org/2000/svg">
<circle cx="16" cy="16" r="16" fill="#241C61"/>
<path d="M16.0099 22H15.9939C15.9444 22 10.9861 21.9906 9.73509 21.6569C9.0472 21.4749 8.50998 20.947 8.32505 20.2713C8.1001 19.025 7.99147 17.761 8.00052 16.4953C7.99471 15.2275 8.10628 13.9617 8.33385 12.7137C8.52386 12.0374 9.05871 11.5071 9.74548 11.314C10.9621 11 15.7837 11 15.9883 11H16.0051C16.0555 11 21.0266 11.0094 22.2647 11.3431C22.9512 11.526 23.4873 12.0528 23.6732 12.7271C23.9053 13.9781 24.0142 15.2481 23.9985 16.5196C24.0041 17.7859 23.8923 19.0501 23.6644 20.2965C23.4771 20.9713 22.9395 21.4981 22.252 21.6805C21.037 21.9969 16.2145 22 16.0099 22ZM14.4112 14.1441L14.4072 18.8543L18.5734 16.4992L14.4112 14.1441Z" fill="#FEFEFE"/>
</svg>
