<svg width="32" height="32" viewBox="0 0 32 32" fill="none" xmlns="http://www.w3.org/2000/svg">
<circle cx="16" cy="16" r="16" fill="#241C61"/>
<path d="M22.1153 12.0498C22.801 11.6398 23.314 10.9942 23.5587 10.2335C22.9144 10.6159 22.2094 10.8853 21.4743 11.03C20.4552 9.95159 18.8404 9.68916 17.5324 10.3893C16.2243 11.0895 15.5468 12.5789 15.8784 14.0253C13.2392 13.8928 10.7804 12.6458 9.11368 10.5946C8.24388 12.0953 8.68837 14.0136 10.1295 14.9786C9.60834 14.9618 9.09879 14.8207 8.64327 14.567C8.64327 14.5807 8.64327 14.5945 8.64327 14.6083C8.64358 16.1715 9.745 17.518 11.2768 17.8278C10.7934 17.9593 10.2864 17.9787 9.79444 17.8844C10.2252 19.2212 11.457 20.137 12.8609 20.1644C11.6981 21.0772 10.2621 21.5723 8.78401 21.5698C8.52202 21.5702 8.26022 21.5551 8 21.5247C9.50102 22.4895 11.248 23.0016 13.0322 22.9998C15.5145 23.0168 17.9 22.038 19.6552 20.2822C21.4104 18.5264 22.3888 16.1402 22.3715 13.6573C22.3715 13.515 22.3682 13.3734 22.3616 13.2327C23.0045 12.7679 23.5593 12.1922 24 11.5326C23.4011 11.7982 22.7658 11.9725 22.1153 12.0498Z" fill="white"/>
</svg>
