<svg width="40" height="40" viewBox="0 0 40 40" fill="none" xmlns="http://www.w3.org/2000/svg">
<g clip-path="url(#clip0_53_210)">
<path d="M12.6042 39.6067C2.45775 29.4603 2.47282 13.0245 12.6042 2.89319C13.0493 2.44804 13.7391 2.37507 14.2653 2.70398L19.3292 5.86905C19.5962 6.03593 19.796 6.29133 19.8938 6.59062C19.9917 6.88991 19.9812 7.21405 19.8642 7.5064L17.3324 13.8362C17.2242 14.1066 17.0311 14.3345 16.7821 14.4855C16.5331 14.6366 16.2417 14.7026 15.952 14.6736L11.5918 14.2376C9.9472 18.7893 9.9815 23.8057 11.5918 28.2623L15.952 27.8262C16.2418 27.7973 16.5332 27.8633 16.7822 28.0143C17.0311 28.1654 17.2243 28.3933 17.3324 28.6637L19.8643 34.9935C19.9812 35.2859 19.9917 35.61 19.8939 35.9093C19.7961 36.2086 19.5962 36.464 19.3292 36.6309L14.2654 39.7959C14.0079 39.9568 13.7034 40.0257 13.4017 39.9914C13.1 39.957 12.8189 39.8214 12.6042 39.6067ZM24.3067 7.45882C25.2311 9.02499 25.2311 10.9751 24.3067 12.5412C23.9981 13.0641 23.2827 13.163 22.8444 12.7429L22.3776 12.2955C22.072 12.0027 22.0031 11.5438 22.2009 11.1698C22.3913 10.8092 22.4908 10.4077 22.4908 10C22.4908 9.59234 22.3913 9.19081 22.2009 8.8303C22.0031 8.45624 22.072 7.99733 22.3776 7.70452L22.8444 7.25718C23.2827 6.83702 23.9981 6.93593 24.3067 7.45882ZM31.4776 0.334835C36.176 5.9289 36.1723 14.0756 31.4776 19.6651C31.1281 20.0813 30.4987 20.1141 30.1063 19.738L29.6534 19.3039C29.2971 18.9624 29.2645 18.4032 29.5807 18.0243C33.4625 13.3729 33.4593 6.62327 29.5807 1.97569C29.2645 1.59679 29.297 1.03757 29.6534 0.696085L30.1063 0.261944C30.4987 -0.114071 31.1281 -0.0813369 31.4776 0.334835ZM27.886 3.84585C30.7024 7.46476 30.707 12.5294 27.886 16.1541C27.5431 16.5948 26.8941 16.6425 26.491 16.256L26.0365 15.8201C25.6927 15.4905 25.646 14.9534 25.9361 14.5755C28.0092 11.8752 28.0091 8.1246 25.9361 5.42444C25.646 5.04663 25.6927 4.50952 26.0365 4.17983L26.491 3.74398C26.8941 3.35749 27.5431 3.40515 27.886 3.84585Z" fill="white"/>
</g>
<defs>
<clipPath id="clip0_53_210">
<rect width="40" height="40" fill="white"/>
</clipPath>
</defs>
</svg>
