<svg width="14" height="14" viewBox="0 0 14 14" fill="none" xmlns="http://www.w3.org/2000/svg">
<g clip-path="url(#clip0_153_94)">
<path d="M4.41145 13.8624C0.860211 10.3111 0.865488 4.55858 4.41145 1.01262C4.56726 0.856814 4.80868 0.831274 4.99286 0.946392L6.7652 2.05417C6.85866 2.11257 6.92861 2.20196 6.96285 2.30672C6.99708 2.41147 6.99341 2.52492 6.95248 2.62724L6.06633 4.84266C6.02847 4.93729 5.96087 5.01706 5.87373 5.06993C5.78658 5.1228 5.68461 5.1459 5.58319 5.13576L4.05713 4.98318C3.48152 6.57625 3.49352 8.33199 4.05713 9.89179L5.58322 9.73919C5.68464 9.72904 5.78661 9.75215 5.87375 9.80501C5.9609 9.85788 6.0285 9.93765 6.06635 10.0323L6.95251 12.2477C6.99343 12.35 6.9971 12.4635 6.96287 12.5682C6.92863 12.673 6.85868 12.7624 6.76523 12.8208L4.99289 13.9286C4.90276 13.9849 4.79621 14.009 4.69061 13.997C4.58501 13.985 4.48661 13.9375 4.41145 13.8624ZM8.50736 2.61059C8.83089 3.15875 8.83089 3.84127 8.50736 4.38944C8.39935 4.57245 8.14893 4.60706 7.99554 4.46001L7.83216 4.30344C7.72522 4.20095 7.7011 4.04034 7.77033 3.90942C7.83697 3.78324 7.87179 3.6427 7.87179 3.50001C7.87179 3.35732 7.83697 3.21678 7.77033 3.09061C7.70107 2.95968 7.72522 2.79907 7.83216 2.69658L7.99554 2.54001C8.14893 2.39296 8.39935 2.42758 8.50736 2.61059ZM11.0172 0.117192C12.6616 2.07511 12.6603 4.92647 11.0172 6.8828C10.8948 7.02846 10.6745 7.03992 10.5372 6.90831L10.3787 6.75637C10.254 6.63685 10.2426 6.44112 10.3533 6.3085C11.7119 4.68051 11.7108 2.31815 10.3533 0.691493C10.2426 0.558876 10.254 0.363149 10.3787 0.24363L10.5372 0.0916805C10.6745 -0.0399249 10.8948 -0.0284679 11.0172 0.117192ZM9.76011 1.34605C10.7459 2.61267 10.7474 4.38528 9.76011 5.65395C9.64007 5.80819 9.41293 5.82487 9.27186 5.6896L9.11277 5.53705C8.99246 5.42169 8.97611 5.23367 9.07764 5.10144C9.80323 4.15633 9.80318 2.84361 9.07764 1.89856C8.97611 1.76632 8.99246 1.57833 9.11277 1.46294L9.27186 1.31039C9.41293 1.17512 9.64007 1.1918 9.76011 1.34605Z" fill="#241C61"/>
</g>
<defs>
<clipPath id="clip0_153_94">
<rect width="14" height="14" fill="white"/>
</clipPath>
</defs>
</svg>
