<svg width="14" height="19" viewBox="0 0 14 19" fill="none" xmlns="http://www.w3.org/2000/svg">
<path d="M13.5039 4.19141L10.0621 0.746094C9.90391 0.587891 9.68945 0.5 9.46445 0.5H9.25V5H13.75V4.78555C13.75 4.56406 13.6621 4.34961 13.5039 4.19141ZM8.125 5.28125V0.5H1.09375C0.626172 0.5 0.25 0.876172 0.25 1.34375V17.6562C0.25 18.1238 0.626172 18.5 1.09375 18.5H12.9062C13.3738 18.5 13.75 18.1238 13.75 17.6562V6.125H8.96875C8.50469 6.125 8.125 5.74531 8.125 5.28125ZM2.5 3.03125C2.5 2.87586 2.62586 2.75 2.78125 2.75H5.59375C5.74914 2.75 5.875 2.87586 5.875 3.03125V3.59375C5.875 3.74914 5.74914 3.875 5.59375 3.875H2.78125C2.62586 3.875 2.5 3.74914 2.5 3.59375V3.03125ZM2.5 5.84375V5.28125C2.5 5.12586 2.62586 5 2.78125 5H5.59375C5.74914 5 5.875 5.12586 5.875 5.28125V5.84375C5.875 5.99914 5.74914 6.125 5.59375 6.125H2.78125C2.62586 6.125 2.5 5.99914 2.5 5.84375ZM7.5625 15.1208V15.9688C7.5625 16.1241 7.43664 16.25 7.28125 16.25H6.71875C6.56336 16.25 6.4375 16.1241 6.4375 15.9688V15.1148C6.04059 15.0944 5.65457 14.9559 5.33465 14.7158C5.19754 14.6128 5.19051 14.4075 5.31461 14.289L5.7277 13.8949C5.82508 13.8021 5.96992 13.7979 6.08383 13.8692C6.21988 13.9543 6.37422 14 6.53453 14H7.52277C7.75129 14 7.93762 13.7919 7.93762 13.5363C7.93762 13.3271 7.8107 13.1429 7.6293 13.0887L6.04727 12.6141C5.39371 12.418 4.93703 11.7908 4.93703 11.0887C4.93703 10.2267 5.60676 9.52637 6.43715 9.50422V8.65625C6.43715 8.50086 6.56301 8.375 6.7184 8.375H7.2809C7.43629 8.375 7.56215 8.50086 7.56215 8.65625V9.5102C7.95906 9.53059 8.34508 9.66875 8.665 9.90922C8.80211 10.0122 8.80914 10.2175 8.68504 10.336L8.27195 10.7301C8.17457 10.8229 8.02973 10.8271 7.91582 10.7558C7.77977 10.6704 7.62543 10.625 7.46512 10.625H6.47687C6.24836 10.625 6.06203 10.8331 6.06203 11.0887C6.06203 11.2979 6.18895 11.4821 6.37035 11.5363L7.95238 12.0109C8.60594 12.207 9.06262 12.8342 9.06262 13.5363C9.06262 14.3987 8.39289 15.0986 7.5625 15.1208Z" fill="#AFB4B9"/>
</svg>
