<svg width="18" height="18" viewBox="0 0 18 18" fill="none" xmlns="http://www.w3.org/2000/svg">
<path d="M2.7 8.1C3.69281 8.1 4.5 7.29281 4.5 6.3C4.5 5.30718 3.69281 4.5 2.7 4.5C1.70719 4.5 0.9 5.30718 0.9 6.3C0.9 7.29281 1.70719 8.1 2.7 8.1ZM15.3 8.1C16.2928 8.1 17.1 7.29281 17.1 6.3C17.1 5.30718 16.2928 4.5 15.3 4.5C14.3072 4.5 13.5 5.30718 13.5 6.3C13.5 7.29281 14.3072 8.1 15.3 8.1ZM16.2 9H14.4C13.905 9 13.4578 9.19968 13.1316 9.52312C14.265 10.1447 15.0694 11.2669 15.2437 12.6H17.1C17.5978 12.6 18 12.1978 18 11.7V10.8C18 9.80718 17.1928 9 16.2 9ZM9 9C10.7409 9 12.15 7.59093 12.15 5.85C12.15 4.10906 10.7409 2.7 9 2.7C7.25906 2.7 5.85 4.10906 5.85 5.85C5.85 7.59093 7.25906 9 9 9ZM11.16 9.9H10.9266C10.3416 10.1812 9.69187 10.35 9 10.35C8.30812 10.35 7.66125 10.1812 7.07344 9.9H6.84C5.05125 9.9 3.6 11.3512 3.6 13.14V13.95C3.6 14.6953 4.20469 15.3 4.95 15.3H13.05C13.7953 15.3 14.4 14.6953 14.4 13.95V13.14C14.4 11.3512 12.9487 9.9 11.16 9.9ZM4.86844 9.52312C4.54219 9.19968 4.095 9 3.6 9H1.8C0.807187 9 0 9.80718 0 10.8V11.7C0 12.1978 0.402187 12.6 0.9 12.6H2.75344C2.93062 11.2669 3.735 10.1447 4.86844 9.52312Z" fill="#AFB4B9"/>
</svg>
